<svg xmlns="http://www.w3.org/2000/svg" width="257.814" height="30.255" viewBox="0 0 257.814 30.255"><g transform="translate(-25.3 -291.3)"><path d="M76.485,298.477a13.567,13.567,0,0,0-11.99-7.177H26.589a1.3,1.3,0,0,0-1.289,1.332,1.17,1.17,0,0,0,.387.9l8.251,8.294a3.908,3.908,0,0,0,2.75,1.16H63.42a3.438,3.438,0,0,1,.086,6.876H45.069A1.3,1.3,0,0,0,43.78,311.2a1.17,1.17,0,0,0,.387.9l8.208,8.294a3.908,3.908,0,0,0,2.75,1.16h8.337c10.873,0,19.081-11.6,13.022-23.078" fill="#ff3008"/><path d="M180.4,305.626v13.237h3.4a6.53,6.53,0,0,0,6.446-6.618h0a6.487,6.487,0,0,0-6.232-6.618H180.4Zm3.4-4.126a10.77,10.77,0,1,1,0,21.531h-7.478a.523.523,0,0,1-.516-.516V302.059a.523.523,0,0,1,.516-.516Z" transform="translate(-85.821 -5.816)" fill="#ff3008"/><path d="M242.447,318.708a7.07,7.07,0,1,0-7.048-7.091h0a7.117,7.117,0,0,0,7.048,7.091m0-18.308A11.225,11.225,0,1,1,230.8,311.617,11.417,11.417,0,0,1,242.447,300.4" transform="translate(-117.184 -5.189)" fill="#ff3008"/><path d="M307.19,318.708a7.07,7.07,0,1,0-7.091-7.091,7.061,7.061,0,0,0,7.091,7.091h0m0-18.308a11.226,11.226,0,1,1-11.69,11.217A11.39,11.39,0,0,1,307.19,300.4" transform="translate(-154.078 -5.189)" fill="#ff3008"/><path d="M373.469,305.683H368.7v5.673h4.77a2.79,2.79,0,0,0,2.922-2.665v-.086a2.827,2.827,0,0,0-2.708-2.922h-.215m-9.369-3.567a.523.523,0,0,1,.516-.516H373.6a7.091,7.091,0,0,1,7.392,7.091,6.985,6.985,0,0,1-3.825,6.318l4.126,7.306a.538.538,0,0,1-.129.731.463.463,0,0,1-.344.086h-3.653a.529.529,0,0,1-.473-.3l-4-7.263h-4v6.962a.523.523,0,0,1-.516.516H364.7a.523.523,0,0,1-.516-.516Z" transform="translate(-193.197 -5.873)" fill="#ff3008"/><path d="M425.3,305.869v13.237h3.4a6.53,6.53,0,0,0,6.446-6.618h0a6.458,6.458,0,0,0-6.232-6.618H425.3Zm3.352-4.169a10.791,10.791,0,1,1,0,21.574h-7.435a.523.523,0,0,1-.516-.516v-20.5a.523.523,0,0,1,.516-.516Z" transform="translate(-225.472 -5.93)" fill="#ff3008"/><path d="M483.558,306.92l-2.622,7.091h5.243Zm-4.126,11.045-1.719,4.727a.6.6,0,0,1-.516.387h-3.7a.535.535,0,0,1-.6-.473.545.545,0,0,1,.043-.258l8.037-20.414a.5.5,0,0,1,.516-.344h4.169a.484.484,0,0,1,.516.344l8.037,20.414a.567.567,0,0,1-.258.731.545.545,0,0,1-.258.043H490a.476.476,0,0,1-.516-.387l-1.719-4.727h-8.337Z" transform="translate(-255.238 -5.865)" fill="#ff3008"/><path d="M531.708,306.616c0-3.4,2.922-6.318,7.521-6.318a9.672,9.672,0,0,1,6.7,2.536.59.59,0,0,1,.043.774l-.043.043-2.063,2.063a.545.545,0,0,1-.774,0h0a5.479,5.479,0,0,0-3.567-1.418c-1.848,0-3.223,1.074-3.223,2.321,0,4,10.916,1.676,10.916,9.369,0,3.911-2.965,6.833-8.165,6.833a10.737,10.737,0,0,1-7.779-3.137.59.59,0,0,1-.043-.774l.043-.043,1.977-1.977a.545.545,0,0,1,.774,0h0a7.068,7.068,0,0,0,4.684,1.934c2.321,0,3.825-1.246,3.825-2.793.043-4-10.83-1.676-10.83-9.412" transform="translate(-288.433 -5.13)" fill="#ff3008"/><path d="M596.452,302.016v8.08h-9.24v-8.08a.523.523,0,0,0-.516-.516h-3.481a.523.523,0,0,0-.516.516v20.414a.523.523,0,0,0,.516.516H586.7a.523.523,0,0,0,.516-.516v-8.208h9.24v8.208a.523.523,0,0,0,.516.516h3.481a.523.523,0,0,0,.516-.516V302.016a.523.523,0,0,0-.516-.516h-3.481A.5.5,0,0,0,596.452,302.016Z" transform="translate(-317.851 -5.816)" fill="#ff3008"/></g></svg>