<svg xmlns="http://www.w3.org/2000/svg" width="223.717" height="46.906" viewBox="0 0 223.717 46.906"><path d="M-91.456,1052.171h-7.83a.714.714,0,0,0-.671.671v17.04h-7.83v-17.04a.715.715,0,0,0-.671-.671h-7.83a.714.714,0,0,0-.671.671v43.737a.714.714,0,0,0,.671.671h7.83a.714.714,0,0,0,.671-.671v-17.487h7.83v17.487a.714.714,0,0,0,.671.671h7.83a.714.714,0,0,0,.671-.671v-43.737a.714.714,0,0,0-.671-.671m-66,0h-7.83a.593.593,0,0,0-.671.671v30.985a5.693,5.693,0,0,1-1.119,3.579,3.011,3.011,0,0,1-2.685,1.119,3.769,3.769,0,0,1-2.685-1.119,5.693,5.693,0,0,1-1.119-3.579v-30.985a.714.714,0,0,0-.671-.671h-7.83a.593.593,0,0,0-.671.671v31.208c0,4.027.895,7.83,3.356,10.328a13.362,13.362,0,0,0,9.657,3.8,12.709,12.709,0,0,0,9.657-3.8c2.461-2.461,3.356-6.04,3.356-10.328v-31.208a.8.8,0,0,0-.746-.671m-76.735-.671a12.71,12.71,0,0,0-9.657,3.8c-2.461,2.461-3.356,6.04-3.356,10.328v18.643c0,4.027.895,7.83,3.356,10.328a13.361,13.361,0,0,0,9.657,3.8,12.709,12.709,0,0,0,9.657-3.8c2.461-2.461,3.356-6.04,3.356-10.328v-10.291a.962.962,0,0,0-.895-.895h-11.447a.962.962,0,0,0-.895.895v7.644a.962.962,0,0,0,.895.895h2.946v1.79a6.315,6.315,0,0,1-1.119,3.8,3.011,3.011,0,0,1-2.685,1.119,3.769,3.769,0,0,1-2.685-1.119,6.4,6.4,0,0,1-1.119-3.8v-18.419a6.316,6.316,0,0,1,1.119-3.8,3.011,3.011,0,0,1,2.685-1.119,3.77,3.77,0,0,1,2.685,1.119,6.4,6.4,0,0,1,1.119,3.8v1.79a.714.714,0,0,0,.671.671h7.83a.593.593,0,0,0,.671-.671v-1.79c0-4.027-.895-7.83-3.356-10.328-2.013-2.722-5.63-4.064-9.433-4.064m100.971,35.683c-.671.895-1.566,1.119-2.946,1.119h-4.474v-9.471h4.474a3.7,3.7,0,0,1,2.685,1.119,5.5,5.5,0,0,1,1.119,3.356C-132.284,1085.169-132.508,1086.251-133.216,1087.183Zm-7.42-25.8h4.027a3.011,3.011,0,0,1,2.685,1.119,4.418,4.418,0,0,1,.895,3.17,5.324,5.324,0,0,1-.895,3.356,3.593,3.593,0,0,1-2.461,1.119h-4.027v-8.762Zm13.013,12.789a12.636,12.636,0,0,0,3.8-8.539,13.488,13.488,0,0,0-3.169-9.21,12.689,12.689,0,0,0-9.657-4.027h-12.267a.714.714,0,0,0-.671.671v43.774a.714.714,0,0,0,.671.671H-135.9a12.891,12.891,0,0,0,10.328-4.735,14.868,14.868,0,0,0,2.946-9.21A12.085,12.085,0,0,0-127.623,1074.17Zm-71.328-4.288a3.781,3.781,0,0,1-3.169,1.342h-3.8v-9.844h3.8a3.879,3.879,0,0,1,3.169,1.342,4.622,4.622,0,0,1,1.119,3.58C-197.833,1067.869-198.02,1068.987-198.952,1069.882Zm4.959,8.091a9.622,9.622,0,0,0,2.237-2.014,14.573,14.573,0,0,0,3.579-9.881,13.368,13.368,0,0,0-3.579-9.657c-2.237-2.685-5.593-4.027-9.433-4.251H-214.2a.714.714,0,0,0-.671.671v43.737a.714.714,0,0,0,.671.671h7.83a.714.714,0,0,0,.671-.671V1080.4h2.685l4.959,16.592c0,.224.447.448.671.448h8.278c.224,0,.447-.224.671-.224s.224-.448.224-.671Zm159.734,9.209c-.671.895-1.566,1.119-2.946,1.119h-4.474v-9.471H-37.2a3.7,3.7,0,0,1,2.685,1.119,5.5,5.5,0,0,1,1.119,3.356,4.722,4.722,0,0,1-.858,3.878Zm-7.2-25.8h4.027a3.011,3.011,0,0,1,2.685,1.119,4.418,4.418,0,0,1,.895,3.17,5.324,5.324,0,0,1-.895,3.356,3.592,3.592,0,0,1-2.461,1.119h-4.027v-8.762Zm13.013,12.789a12.636,12.636,0,0,0,3.8-8.539,13.488,13.488,0,0,0-3.169-9.21,12.689,12.689,0,0,0-9.657-4.027H-49.844a.714.714,0,0,0-.671.671v43.774a.714.714,0,0,0,.671.671h13.087a12.891,12.891,0,0,0,10.328-4.735,14.868,14.868,0,0,0,2.946-9.21,13.434,13.434,0,0,0-4.959-9.4Zm-30.053-22h-7.83a.593.593,0,0,0-.671.671v30.985a5.693,5.693,0,0,1-1.119,3.579,3.011,3.011,0,0,1-2.685,1.119,3.769,3.769,0,0,1-2.685-1.119,5.693,5.693,0,0,1-1.119-3.579v-30.985a.715.715,0,0,0-.671-.671h-7.867a.593.593,0,0,0-.671.671v31.208c0,4.027.895,7.83,3.356,10.328a13.361,13.361,0,0,0,9.657,3.8,12.709,12.709,0,0,0,9.657-3.8c2.461-2.461,3.356-6.04,3.356-10.328v-31.208c.224-.224-.224-.671-.708-.671" transform="translate(247.2 -1051.5)" fill="#f63440"/></svg>