<svg xmlns="http://www.w3.org/2000/svg" xmlns:xlink="http://www.w3.org/1999/xlink" viewBox="0 0 162.22 45.21"><defs><style>.cls-1{fill:none;}.cls-2{clip-path:url(#clip-path);}.cls-3{fill:#c92038;}.cls-4{clip-path:url(#clip-path-2);}.cls-5{fill:#2c429b;}.cls-6{fill:#fff;}</style><clipPath id="clip-path" transform="translate(0 0)"><rect class="cls-1" width="162.22" height="45.21"/></clipPath><clipPath id="clip-path-2" transform="translate(0 0)"><rect class="cls-1" width="162.22" height="45.21"/></clipPath></defs><title>Asset 1</title><g id="Layer_2" data-name="Layer 2"><g id="Layer_1-2" data-name="Layer 1"><g id="Hibiki_Logo_Outlined" data-name="Hibiki Logo Outlined"><g class="cls-2"><polygon class="cls-3" points="39.93 0 35.28 15.66 22.59 15.66 27.24 0 13.35 0 0 45.08 13.89 45.08 19.18 27.21 31.87 27.21 26.58 45.08 40.47 45.08 53.83 0 39.93 0"/><polygon class="cls-3" points="58.32 0.12 49.15 31.22 58.73 31.22 67.89 0.12 58.32 0.12"/><g class="cls-4"><path class="cls-3" d="M72.82.12h16c6.74,0,9.06,2.35,8.67,6.83a8,8,0,0,1-6.36,7.5h0v.08a5.63,5.63,0,0,1,4.16,6.23c-.66,7.5-6.93,10.46-13.72,10.46H63.65Zm2.37,23.69h6.13c1.7,0,4.11-.61,4.33-3.13.2-2.31-1.47-2.66-3.47-2.66H76.91Zm3.4-11.58H84c1.53,0,3.49-.57,3.66-2.49s-1.07-2.22-2.77-2.22H80Z" transform="translate(0 0)"/><polygon class="cls-3" points="105.09 0.12 114.67 0.12 105.5 31.22 95.92 31.22 105.09 0.12"/><polygon class="cls-3" points="119.68 0.12 129.25 0.12 126.22 10.35 126.31 10.44 137.83 0.12 150.28 0.12 134.32 12.92 141.68 31.22 130.93 31.22 126.28 19.15 122.76 22.11 120.09 31.22 110.51 31.22 119.68 0.12"/><polygon class="cls-3" points="152.65 0.12 162.22 0.12 153.06 31.22 143.48 31.22 152.65 0.12"/><polygon class="cls-5" points="48.19 34.62 152.13 34.62 149.47 45.21 45.36 45.21 48.19 34.62"/><path class="cls-6" d="M58.18,38.28c0-.5-.4-.85-1.51-.85-.82,0-1.29.24-1.34.72,0,.24.14.39.51.45l3.16.5c1.34.24,2.11.79,2,2.08-.21,2.48-3.44,2.51-4.44,2.51-2.48,0-4.24-.45-4.2-2.49h2.89c0,.56.29.91,1.56.91.61,0,1.29-.15,1.35-.77,0-.39-.26-.52-1.1-.66l-2.41-.37c-1.48-.22-2-1-1.91-2.07s.8-2.33,4-2.33c2.65,0,4.19.64,4.19,2.37Z" transform="translate(0 0)"/><path class="cls-6" d="M62.58,36.14H65l-.38,4.34c-.1,1.19.42,1.57,1.54,1.57s1.7-.38,1.8-1.57l.39-4.34h2.43l-.41,4.74c-.18,2-1.76,2.81-4.36,2.81s-4-.79-3.86-2.81Z" transform="translate(0 0)"/><path class="cls-6" d="M77.3,38.28c0-.5-.39-.85-1.51-.85-.82,0-1.29.24-1.33.72,0,.24.13.39.5.45l3.16.5c1.34.24,2.12.79,2,2.08-.21,2.48-3.43,2.51-4.44,2.51-2.48,0-4.23-.45-4.2-2.49h2.89c0,.56.29.91,1.56.91.62,0,1.3-.15,1.35-.77,0-.39-.26-.52-1.1-.66l-2.4-.37c-1.49-.22-2-1-1.91-2.07s.79-2.33,4-2.33c2.65,0,4.2.64,4.2,2.37Z" transform="translate(0 0)"/><polygon class="cls-6" points="87.56 40.4 83.87 40.4 83.6 43.46 81.16 43.46 81.8 36.14 84.24 36.14 84.01 38.75 87.71 38.75 87.94 36.14 90.38 36.14 89.74 43.46 87.3 43.46 87.56 40.4"/><polygon class="cls-6" points="92.14 36.14 94.58 36.14 93.94 43.46 91.5 43.46 92.14 36.14"/><path class="cls-6" d="M106.46,43.46l-.61-.6a5.43,5.43,0,0,1-3,.83c-2.24,0-3.09-1.12-3-2.35s1.08-1.91,2.28-2.18a1.57,1.57,0,0,1-.61-1.3c.11-1.23,1.39-1.79,2.9-1.79,1.74,0,2.71.61,2.62,1.7-.08.91-.84,1.38-1.76,1.63l1.3,1.29a7.64,7.64,0,0,0,1.29-1.31l1.09.81a8.17,8.17,0,0,1-1.37,1.51l1.82,1.76Zm-3.37-3.37a1.29,1.29,0,0,0-.88,1c-.06.6.38,1.15,1.34,1.15a2.48,2.48,0,0,0,1.32-.4Zm1.13-1.51c.56-.21.86-.48.89-.78s-.21-.54-.63-.54-.77.16-.8.52.28.56.54.8" transform="translate(0 0)"/><path class="cls-6" d="M115.13,36.14h6.06c1.77,0,2,1.1,1.92,1.8a1.73,1.73,0,0,1-1,1.48v0a1.53,1.53,0,0,1,1.11,1.84c-.08.87-.6,2.18-2.85,2.18h-5.85Zm4.56,5.74a.84.84,0,0,0,.93-.76c0-.48-.29-.73-.8-.73H117.2l-.13,1.49ZM117.32,39h2.43c.53,0,.77-.29.8-.63s-.17-.61-.69-.61h-2.43Z" transform="translate(0 0)"/><path class="cls-6" d="M127.22,36.14h3l2.51,7.32h-2.62l-.34-1.19h-3.19L126,43.46H123.4ZM128.54,38h0l-1.26,2.77h2Z" transform="translate(0 0)"/><path class="cls-6" d="M134.06,36.14h5.86c1.79,0,2.38.82,2.27,2a1.74,1.74,0,0,1-1.31,1.67v0a1.19,1.19,0,0,1,.77,1.31c0,1.45,0,1.91.26,2.28h-2.67a2.85,2.85,0,0,1,0-1.09c.1-1.14-.26-1.35-.88-1.35h-2.23l-.21,2.44h-2.44Zm2.15,3.24h2.35a.88.88,0,0,0,1-.81c0-.48-.25-.79-.85-.79h-2.34Z" transform="translate(0 0)"/></g></g></g></g></g></svg>