<svg xmlns="http://www.w3.org/2000/svg" width="256" height="63.602" viewBox="0 0 256 63.602"><g transform="translate(0 -0.003)"><g transform="translate(0 0.003)"><path d="M131.05,20.2Z" transform="translate(8.503 1.308)" fill="#1d252c"/><path d="M112.81,29.947a5.1,5.1,0,0,1-1.342,1.991,5.324,5.324,0,0,1-2.055,1.118,9.052,9.052,0,0,1-2.588.351h-1.7v7.177H100.5V20.81h6.656a8.519,8.519,0,0,1,2.449.33,4.909,4.909,0,0,1,1.927,1.065,4.824,4.824,0,0,1,1.289,1.9,7.891,7.891,0,0,1,.469,2.9,8.157,8.157,0,0,1-.479,2.95Zm-4.654-4.739a1.693,1.693,0,0,0-1.427-.554h-1.608v4.877h1.533a1.81,1.81,0,0,0,1.48-.575,3.046,3.046,0,0,0,.458-1.917,3.014,3.014,0,0,0-.437-1.832Z" transform="translate(6.521 1.347)" fill="#1d252c"/><path d="M129.562,35.237a8.892,8.892,0,0,1-1.395,3.195,5.868,5.868,0,0,1-2.247,1.885,7.092,7.092,0,0,1-2.992.618,6.08,6.08,0,0,1-5.175-2.471q-1.853-2.524-1.853-7.72t1.874-7.72a6.176,6.176,0,0,1,5.207-2.5,6.1,6.1,0,0,1,5.2,2.492c1.246,1.651,1.864,4.26,1.864,7.678A18.976,18.976,0,0,1,129.562,35.237Zm-4.515-7.454a7.624,7.624,0,0,0-.426-1.9,2.13,2.13,0,0,0-.7-1.012,1.746,1.746,0,0,0-1.938,0,2.183,2.183,0,0,0-.692.98,7.529,7.529,0,0,0-.4,1.885,28.846,28.846,0,0,0-.128,2.982,25.5,25.5,0,0,0,.138,2.971,8.114,8.114,0,0,0,.426,1.906,2.226,2.226,0,0,0,.692,1.065,1.661,1.661,0,0,0,.969.3,1.7,1.7,0,0,0,.969-.288,2.034,2.034,0,0,0,.692-.98,8.519,8.519,0,0,0,.4-1.885,25.821,25.821,0,0,0,.138-2.982,25.821,25.821,0,0,0-.138-3.067Z" transform="translate(7.52 1.328)" fill="#1d252c"/><path d="M144.9,37.566a5.015,5.015,0,0,1-1.342,1.821,6.389,6.389,0,0,1-2,1.129,7.848,7.848,0,0,1-2.556.394,9.584,9.584,0,0,1-2.13-.224,6.6,6.6,0,0,1-3.131-1.768,12.509,12.509,0,0,1-1.278-1.459l3.195-2.907a10.947,10.947,0,0,0,1.8,1.8,2.641,2.641,0,0,0,1.555.607,1.885,1.885,0,0,0,1.214-.383,1.448,1.448,0,0,0,.479-1.2,3.451,3.451,0,0,0-.085-.767,1.672,1.672,0,0,0-.351-.66,3.482,3.482,0,0,0-.767-.65,9.307,9.307,0,0,0-1.331-.692,18.029,18.029,0,0,1-2.5-1.289,6.623,6.623,0,0,1-1.565-1.363,4.664,4.664,0,0,1-.926-1.619,7.059,7.059,0,0,1-.277-2.055,6.038,6.038,0,0,1,.415-2.258,5.442,5.442,0,0,1,1.225-1.821,5.58,5.58,0,0,1,1.874-1.171,6.783,6.783,0,0,1,2.556-.458,9.584,9.584,0,0,1,2.023.2,5.591,5.591,0,0,1,1.608.607,7.039,7.039,0,0,1,1.342.99,11.715,11.715,0,0,1,1.235,1.342l-3.269,2.928-.873-1a4.983,4.983,0,0,0-.713-.66,1.981,1.981,0,0,0-.682-.351,3.194,3.194,0,0,0-.809-.1,1.31,1.31,0,0,0-1.065.415,1.491,1.491,0,0,0-.373.99,2.024,2.024,0,0,0,.117.7,1.608,1.608,0,0,0,.394.607,3.354,3.354,0,0,0,.767.586,12.033,12.033,0,0,0,1.235.618,17.837,17.837,0,0,1,2.534,1.32,7.07,7.07,0,0,1,1.672,1.448,5.228,5.228,0,0,1,.948,1.736,7.189,7.189,0,0,1,.3,2.194,6.091,6.091,0,0,1-.458,2.417Z" transform="translate(8.594 1.332)" fill="#1d252c"/><path d="M156.411,24.942V40.585H151.7V24.942H147.69V20.81h12.779v4.132Z" transform="translate(9.582 1.347)" fill="#1d252c"/><path d="M175.171,40.585V33.173c0-.958.053-1.853.085-2.7-.117.394-.245.831-.383,1.32s-.3.98-.458,1.491-.351,1.065-.532,1.544-.341.98-.49,1.438l-1.832,4.984L169.7,36.3l-.49-1.448c-.181-.522-.351-1.065-.522-1.555s-.33-1.065-.469-1.491-.266-.926-.383-1.32c0,.831.064,1.725.085,2.684s0,1.981,0,3.056v4.377h-4.26V20.81h4.26l1.746,4.867c.437,1.182.82,2.311,1.161,3.4a23.183,23.183,0,0,1,.7,2.673,27.2,27.2,0,0,1,.735-2.652c.341-1.065.724-2.226,1.161-3.45l1.714-4.835h4.26V40.585Z" transform="translate(10.619 1.347)" fill="#1d252c"/><path d="M192.491,40.585l-.735-3.674h-3.9l-.7,3.674H182.3l5.111-19.775h4.856l5.079,19.775Zm-1.64-8.168c-.224-1.3-.437-2.481-.639-3.567s-.341-2.077-.437-2.982c-.1.905-.224,1.9-.4,2.982s-.394,2.279-.639,3.6l-.106.618h2.343Z" transform="translate(11.828 1.347)" fill="#1d252c"/><path d="M206.532,24.942V40.585h-4.717V24.942H197.8V20.81h12.779v4.132Z" transform="translate(12.834 1.347)" fill="#1d252c"/><path d="M213.74,40.585V20.81h11.586v4.047h-6.9v3.354h4.494v4.036h-4.494v4.26h7.092v4.047Z" transform="translate(13.868 1.347)" fill="#1d252c"/><path d="M240.76,37.566a5.016,5.016,0,0,1-1.342,1.821,6.388,6.388,0,0,1-2.034,1.129,7.848,7.848,0,0,1-2.556.394,9.5,9.5,0,0,1-2.13-.224A6.784,6.784,0,0,1,230.984,40a7.328,7.328,0,0,1-1.427-1.065,13.561,13.561,0,0,1-1.267-1.459l3.195-2.907a11.383,11.383,0,0,0,1.81,1.8,2.641,2.641,0,0,0,1.555.607,1.885,1.885,0,0,0,1.214-.383,1.448,1.448,0,0,0,.479-1.2,2.918,2.918,0,0,0-.085-.767,1.672,1.672,0,0,0-.351-.66,3.664,3.664,0,0,0-.756-.65,10.871,10.871,0,0,0-1.342-.692,18.027,18.027,0,0,1-2.5-1.289,6.89,6.89,0,0,1-1.672-1.363,4.813,4.813,0,0,1-.916-1.619,6.719,6.719,0,0,1-.277-2.055,6.037,6.037,0,0,1,.415-2.258,5.569,5.569,0,0,1,1.214-1.821,5.729,5.729,0,0,1,1.97-1.193,6.783,6.783,0,0,1,2.556-.458,9.584,9.584,0,0,1,2.023.2,5.474,5.474,0,0,1,1.608.607,7.039,7.039,0,0,1,1.342.99,14.111,14.111,0,0,1,1.246,1.342l-3.28,2.928-.873-1a4.983,4.983,0,0,0-.713-.66,2.034,2.034,0,0,0-.692-.351,3.046,3.046,0,0,0-.8-.1,1.31,1.31,0,0,0-1.065.415,1.491,1.491,0,0,0-.373.99,2.023,2.023,0,0,0,.117.7,1.608,1.608,0,0,0,.394.607,3.8,3.8,0,0,0,.756.586,12.343,12.343,0,0,0,1.246.618,17.1,17.1,0,0,1,2.524,1.32,6.922,6.922,0,0,1,1.683,1.448,5.047,5.047,0,0,1,.948,1.736,7.189,7.189,0,0,1,.3,2.194,6.092,6.092,0,0,1-.426,2.417Z" transform="translate(14.812 1.332)" fill="#1d252c"/><path d="M86.383,24.822A11.767,11.767,0,0,0,68.152,23.63l-3.44-2.7c1-.373,4.121-1.629,2.822-2.311a5.761,5.761,0,0,0-1.959-.373l2.439-2.13.532-.469,4.611-3.929-2.13-4.132-7,6.262a8.1,8.1,0,0,0-.682.607h0a18.944,18.944,0,0,0-3.716.138h0a13.588,13.588,0,0,1-3.525.362c-2.3-.447-2.843-2.9-3.876-4.26-.6-.809-1.789-.895-1.885-1.587a4,4,0,0,0,.916-.288,3.653,3.653,0,0,0,2.045-1.938c.426-.969,0-2.556-.682-3.887.522-.373,2.471-1.9,2.4-2.13a24.236,24.236,0,0,0-3.472.437,2.864,2.864,0,0,0-.415-.4c-.8-.7-1.48-1.32-3.45-.5C44.331,1.8,44.491,4.419,45.62,6.783a4.078,4.078,0,0,0,2.4,2.13c-.075.138-.117.213-.149.288l.053-.3C42.6,13.684,30.243,21.734,26.984,21.894c2.694,1.065,10.468,1.2,13.726-.745-.916,3.716-.969,7.39.6,9.211A36.112,36.112,0,0,0,38.336,32.8c-.479.458-.33.692.075,1.214,0,0,3.195.064,4.089-.831.245-.234.469-.447.66-.65L47.515,35.6,47.1,40a11.16,11.16,0,0,0-2.215.224A11.816,11.816,0,1,0,57.5,46.109l.863-.554a2.641,2.641,0,0,0,3.876-2.811c1.171-.341,2.417-.745,3.791-1.15s1.651-.852,1.3-1.565c-.49-.958-4.121-.1-4.59-.639l-.98-2.311,1.991-14.546,3.333,2.492a11.8,11.8,0,1,0,19.3-.2ZM55.629,17.208a21.361,21.361,0,0,0,5.122-.234l.575,1.278a36.44,36.44,0,0,0-3.684.4C56.726,18.806,54.309,16.442,55.629,17.208ZM44.193,31.531a7.179,7.179,0,0,0,1.065-.106c3.195-.319,5.388-.639,6.858-.884l-3.993,3.8Zm10.276-.863c-.852,2.971-1.7,5.058-2.268,6.528l-2.63-1.864Zm-5.963,11.81A9.488,9.488,0,0,1,54.586,46l-6.815,4.409Zm4.153,16.964A9.414,9.414,0,1,1,45.311,42.6a9.147,9.147,0,0,1,1.544-.213l-.895,9.584a.841.841,0,0,0,.4.788.788.788,0,0,0,.6.106.745.745,0,0,0,.288-.117l8.263-5.324a9.424,9.424,0,0,1-2.854,12.023ZM56.6,44.725a11.841,11.841,0,0,0-7.869-4.6l.319-3.386,2.673,1.9c-.3,1.065-.17,1.64.7,1.991l4.685,1.81h0a2.62,2.62,0,0,0,.085,1.864Zm2.971-4.11a2.566,2.566,0,0,0-1.139.309,5.4,5.4,0,0,0-1.065-.841c-.426-.277-2.375-1.438-2.3-1.683A33.13,33.13,0,0,1,56.9,34.5a24.364,24.364,0,0,1,2.886,4.7Zm.884-6.538-2.13-4.909a5.324,5.324,0,0,0-.149-2.055l3.716-3.535Zm-3.28-8.327c-2.247-1.629-6.911-.841-9.946-.33,1.065-2.13,2.854-4.419,3.461-7.039.33,1.683,5.75,3.557,5.75,3.557a35.376,35.376,0,0,0,4.622-1.384l.064.064.82.607ZM82.283,39.4A9.4,9.4,0,0,1,69,26.441l7.582,5.644a.756.756,0,0,0,.511.128.7.7,0,0,0,.5-.277.724.724,0,0,0-.138-1L70.08,25.12A9.8,9.8,0,0,1,71.3,24.055,9.434,9.434,0,1,1,82.283,39.4ZM24.993,33.49l-2.311-4.153-.543,4.675-4.622.926,4.26,1.97L21.3,41.594l3.195-3.472,4.26,1.97-2.311-4.11,3.195-3.472ZM22.927,53.244l-2.311-4.11-.543,4.685-4.622.916,4.26,1.97-.543,4.717,3.195-3.472,4.26,1.97-2.311-4.11,3.195-3.461ZM7.454,46.162l-2.279-4.1-.554,4.675L0,47.664l4.26,1.97-.522,4.675,3.195-3.461,4.26,1.97-2.279-4.11,3.195-3.472ZM59.186,13.439c.66,0,2.13-.075,3.823,0l7.1-6.389-3.12-.319L59.154,13.4h0Z" transform="translate(0 -0.003)" fill="#1d252c"/></g></g></svg>