<svg xmlns="http://www.w3.org/2000/svg" width="136" height="70.041" viewBox="0 0 136 70.041"><g transform="translate(0 0.1)"><g transform="translate(0 14.584)"><path d="M122.865,55.517l-2.144-.585c-5.848-1.689-8.577-2.664-8.577-5.133,0-2.664,2.664-4.028,6.172-4.028,4.353,0,7.017,1.819,8.512,5.588.325.78.78.845,1.364.585l6.237-2.664a1.02,1.02,0,0,0,.52-1.559C132.416,40.768,126.7,37,118.772,37c-9.811,0-15.659,5.458-15.659,13.32,0,7.212,4.613,10.266,13.579,12.995l2.079.585c5.458,1.559,8.577,2.534,8.577,5.328,0,3.184-3.119,4.613-7.277,4.613-5.068,0-8.576-2.534-10.266-7.277-.26-.78-.78-.91-1.364-.585l-5.653,2.989a1.442,1.442,0,0,0-.715,1.559c3.119,8.641,8.771,12.15,17.608,12.15,9.811,0,16.308-5.133,16.308-13.45.26-8.122-4.353-11.24-13.125-13.709ZM19.687,37C8.577,37,0,46.226,0,59.481,0,73.645,8.577,82.741,19.687,82.741c7.212,0,13.9-2.664,17.478-10.656a1.1,1.1,0,0,0-.52-1.559l-6.172-3.184c-.585-.325-1.04-.065-1.364.585-1.624,3.7-5.068,5.328-9.356,5.328-3.639,0-7.472-1.884-9.291-6.822-.585-1.949,0-3.249,1.884-3.249h25.08c.715,0,1.04-.52,1.04-1.17V60.585C38.529,45.966,31.252,37,19.687,37ZM9.811,55.193c1.3-6.5,5.718-9.031,9.941-9.031,5.458,0,8.447,2.989,9.1,9.031ZM75.759,68.447V54.283c0-11.825-6.367-17.153-16.568-17.153-9.1,0-15.2,4.613-17.348,10.916a1.114,1.114,0,0,0,.715,1.559L48.8,52.789c.715.325,1.04.065,1.364-.585,1.819-4.418,4.548-5.783,9.031-5.783,3.963,0,6.887,1.949,6.887,4.873a3.043,3.043,0,0,1-1.754,2.924c-1.754.91-5.2,1.429-10.656,2.924-7.667,2.079-12.93,4.613-12.93,12.54,0,8.836,6.562,13.255,14.164,13.255,5.393,0,10.136-2.209,12.15-5.913h.065a25.3,25.3,0,0,0,1.364,4.288,1.336,1.336,0,0,0,1.234.78h7.8c.845,0,1.234-.585.78-1.429C76.669,77.479,75.759,74.23,75.759,68.447Zm-9.486-1.884c0,4.288-5.2,7.212-10.136,7.212-3.639,0-6.172-1.689-6.172-4.613,0-3.444,3.574-4.418,6.757-5.2l9.486-2.4v5Z" transform="translate(0 -27.579)" fill="#7dc240"/><path d="M143.232,66.877c-.325-.78-.78-.845-1.364-.585a10.384,10.384,0,0,1-4.353,1.17c-2.534,0-4.158-1.689-4.158-5.328v-16.7c0-1.819,1.04-2.989,2.664-2.989h7.472c.715,0,1.04-.52,1.04-1.17V34.39a1.029,1.029,0,0,0-1.04-1.17H133.356V23.67a1.029,1.029,0,0,0-1.04-1.17H125.04c-.715,0-1.04.52-1.04,1.17v39.5c0,9.291,4.873,13.9,12.6,13.9a19.132,19.132,0,0,0,8.966-2.4,1.02,1.02,0,0,0,.52-1.559C146.026,73.179,143.232,66.877,143.232,66.877Z" transform="translate(-43.433 -22.5)" fill="#7dc240"/></g><g transform="translate(3.054 -0.1)"><path d="M11.587,16.013c4.093,0,6.822-1.689,6.822-6.692V-.035H15.745c-.26,0-.39.195-.39.455v8.9c0,2.989-1.17,4.158-3.9,4.158s-3.9-1.17-3.9-4.158V-.035H4.96c-.13,0-.26.195-.26.455V9.386C4.7,14.324,7.494,16.013,11.587,16.013Zm32.162-.26h9.876c.26,0,.325-.065.39-.26l.78-2.144c.065-.195,0-.195-.13-.195H45.633V10.361c0-.91.455-1.364,1.754-1.364h3.963c.26,0,.325-.065.39-.26l.78-2.079c.065-.195,0-.195-.13-.195H45.633V2.5h7.992c.26,0,.325-.065.39-.26l.78-2.144c.065-.065.065-.13-.13-.13H44.074c-.975,0-1.364.325-1.364,1.1V14.844C42.774,15.494,42.969,15.754,43.749,15.754Zm-18.517,0h7.342c2.794,0,4.808-1.17,4.808-4.353,0-1.884-.715-3.509-2.274-3.963A3.989,3.989,0,0,0,36.6,3.928C36.6.42,34.068-.1,31.4-.1H25.427c-.975,0-1.364.325-1.364,1.1V14.779C24.127,15.494,24.387,15.754,25.232,15.754ZM27.051,2.5h4.613c1.494,0,1.949.715,1.949,2.079s-.455,2.079-1.949,2.079H27.051Zm0,7.8c0-.91.455-1.364,1.754-1.364h3.379c1.689,0,2.144.715,2.144,2.144s-.455,2.144-2.144,2.144h-5.2V10.3Zm33.2,5.458h2.6V11.14c0-.91.455-1.364,1.754-1.364h2.6L70,15.494c.065.195.13.26.39.26h2.729c.13,0,.13-.195.13-.26L70.063,9.451C71.688,9,72.857,7.827,72.857,4.838,72.857,1,70.713-.035,67.2-.035H61.227c-.975,0-1.364.325-1.364,1.1V15.364A.345.345,0,0,0,60.252,15.754ZM62.851,2.5h4.873c1.819,0,2.209.78,2.209,2.4s-.39,2.4-2.209,2.4H62.851Z" transform="translate(-4.7 0.1)"/></g></g></svg>