<?xml version="1.0" encoding="utf-8"?>
<!-- Generator: Adobe Illustrator 22.1.0, SVG Export Plug-In . SVG Version: 6.00 Build 0)  -->
<svg version="1.1" id="Logotype" xmlns="http://www.w3.org/2000/svg" xmlns:xlink="http://www.w3.org/1999/xlink" x="0px" y="0px"
	 viewBox="0 0 211 107.7" style="enable-background:new 0 0 211 107.7;" xml:space="preserve">
<style type="text/css">
	.st0{fill:#7DC240;}
</style>
<g id="Lockup">
	<g id="eats">
		<path class="st0" d="M189.1,65.5l-3.3-0.9c-9-2.6-13.2-4.1-13.2-7.9c0-4.1,4.1-6.2,9.5-6.2c6.7,0,10.8,2.8,13.1,8.6
			c0.5,1.2,1.2,1.3,2.1,0.9l9.6-4.1c1.1-0.5,1.3-1.3,0.8-2.4C203.8,42.8,195,37,182.8,37c-15.1,0-24.1,8.4-24.1,20.5
			c0,11.1,7.1,15.8,20.9,20l3.2,0.9c8.4,2.4,13.2,3.9,13.2,8.2c0,4.9-4.8,7.1-11.2,7.1c-7.8,0-13.2-3.9-15.8-11.2
			c-0.4-1.2-1.2-1.4-2.1-0.9l-8.7,4.6c-0.8,0.5-1.3,1.3-1.1,2.4c4.8,13.3,13.5,18.7,27.1,18.7c15.1,0,25.1-7.9,25.1-20.7
			C209.7,74.1,202.6,69.3,189.1,65.5L189.1,65.5z M30.3,37C13.2,37,0,51.2,0,71.6c0,21.8,13.2,35.8,30.3,35.8
			c11.1,0,21.4-4.1,26.9-16.4c0.5-1.2,0.1-1.8-0.8-2.4l-9.5-4.9c-0.9-0.5-1.6-0.1-2.1,0.9c-2.5,5.7-7.8,8.2-14.4,8.2
			c-5.6,0-11.5-2.9-14.3-10.5c-0.9-3,0-5,2.9-5h38.6c1.1,0,1.6-0.8,1.6-1.8v-2.2C59.3,50.8,48.1,37,30.3,37z M15.1,65
			c2-10,8.8-13.9,15.3-13.9c8.4,0,13,4.6,14,13.9H15.1z M116.6,85.4V63.6c0-18.2-9.8-26.4-25.5-26.4c-14,0-23.4,7.1-26.7,16.8
			c-0.4,1.2,0.1,2.1,1.1,2.4l9.6,4.9c1.1,0.5,1.6,0.1,2.1-0.9c2.8-6.8,7-8.9,13.9-8.9c6.1,0,10.6,3,10.6,7.5c0,2.1-0.8,3.4-2.7,4.5
			c-2.7,1.4-8,2.2-16.4,4.5c-11.8,3.2-19.9,7.1-19.9,19.3c0,13.6,10.1,20.4,21.8,20.4c8.3,0,15.6-3.4,18.7-9.1h0.1
			c0.5,2.1,1.2,4.6,2.1,6.6c0.4,0.8,1.1,1.2,1.9,1.2h12c1.3,0,1.9-0.9,1.2-2.2C118,99.3,116.6,94.3,116.6,85.4z M102,82.5
			c0,6.6-8,11.1-15.6,11.1c-5.6,0-9.5-2.6-9.5-7.1c0-5.3,5.5-6.8,10.4-8l14.6-3.7V82.5z"/>
		<path class="st0" d="M153.6,90.8c-0.5-1.2-1.2-1.3-2.1-0.9c-2.7,1.3-5,1.8-6.7,1.8c-3.9,0-6.4-2.6-6.4-8.2V57.8
			c0-2.8,1.6-4.6,4.1-4.6h11.5c1.1,0,1.6-0.8,1.6-1.8V40.8c0-1.2-0.7-1.8-1.6-1.8h-15.6V24.3c0-1.2-0.7-1.8-1.6-1.8h-11.2
			c-1.1,0-1.6,0.8-1.6,1.8v60.8c0,14.3,7.5,21.4,19.4,21.4c4.8,0,9.1-1.3,13.8-3.7c1.1-0.4,1.3-1.4,0.8-2.4
			C157.9,100.5,153.6,90.8,153.6,90.8z"/>
	</g>
	<g id="UBER">
		<path d="M15.3,24.7c6.3,0,10.5-2.6,10.5-10.3V0h-4.1c-0.4,0-0.6,0.3-0.6,0.7v13.7c0,4.6-1.8,6.4-6,6.4s-6-1.8-6-6.4V0h-4
			C4.9,0,4.7,0.3,4.7,0.7v13.8C4.7,22.1,9,24.7,15.3,24.7z M64.8,24.3H80c0.4,0,0.5-0.1,0.6-0.4l1.2-3.3c0.1-0.3,0-0.3-0.2-0.3H67.7
			v-4.3c0-1.4,0.7-2.1,2.7-2.1h6.1c0.4,0,0.5-0.1,0.6-0.4l1.2-3.2c0.1-0.3,0-0.3-0.2-0.3H67.7V3.9H80c0.4,0,0.5-0.1,0.6-0.4l1.2-3.3
			C81.9,0.1,81.9,0,81.6,0H65.3c-1.5,0-2.1,0.5-2.1,1.7v21.2C63.3,23.9,63.6,24.3,64.8,24.3z M36.3,24.3h11.3c4.3,0,7.4-1.8,7.4-6.7
			c0-2.9-1.1-5.4-3.5-6.1c1.6-1.1,2.3-3,2.3-5.4c0-5.4-3.9-6.2-8-6.2h-9.2c-1.5,0-2.1,0.5-2.1,1.7v21.2C34.6,23.9,35,24.3,36.3,24.3
			z M39.1,3.9h7.1c2.3,0,3,1.1,3,3.2s-0.7,3.2-3,3.2h-7.1V3.9z M39.1,15.9c0-1.4,0.7-2.1,2.7-2.1H47c2.6,0,3.3,1.1,3.3,3.3
			s-0.7,3.3-3.3,3.3h-8V15.9z M90.2,24.3h4v-7.1c0-1.4,0.7-2.1,2.7-2.1h4l4.3,8.8c0.1,0.3,0.2,0.4,0.6,0.4h4.2
			c0.2,0,0.2-0.3,0.2-0.4l-4.9-9.3c2.5-0.7,4.3-2.5,4.3-7.1c0-5.9-3.3-7.5-8.7-7.5h-9.2c-1.5,0-2.1,0.5-2.1,1.7v22
			C89.6,24.1,89.8,24.3,90.2,24.3z M94.2,3.9h7.5c2.8,0,3.4,1.2,3.4,3.7s-0.6,3.7-3.4,3.7h-7.5V3.9z"/>
	</g>
</g>
</svg>
